<svg xmlns="http://www.w3.org/2000/svg" id="Ebene_2" viewBox="0 0 134.18 326.89"><g id="Ebene_1-2"><path d="m63.45,12.59c.13.96-.64,2.12-1.16,2.92-.82,1.24-1.71,2.45-2.26,3.84-.57,1.43-.98,3.1-.58,4.63.52,2.02,2.51,3.4,4.44,2.62,1.43-.59.32-1.75-.09-4.02.16-.82.94-1.62,1.42-2.24.81-1.05,1.65-1.86,2.3-3.01,1.25-2.23,2.29-6.05-.86-7.32-2.16-.61-3.18-.43-3.95-.54-.03.59.55,1.74.74,3.13" style="fill:#a95260;"></path><path d="m42.19,117.64c-.56-.43-1.12-.85-1.65-1.28-5.84-4.69-9.95-12.16-13.06-19.06-2.83-6.28-5.31-13-7.07-19.75-.9-3.44-1.62-6.92-2.15-10.42-.29-1.95-.27-3.91-.51-5.86-.11-.95-.28-1.91-.59-2.82-.21-.63-.51-1.33-1.06-1.73-.63-.47-1.54-.52-2.25-.48-.51.03-1.01.13-1.49.28-.46.14-.96.29-1.31.65-.36.37-.53.96-.66,1.48-.28,1.13-.3,2.33-.3,3.51,0,1.7.19,3.4.25,5.1.14,4.1.47,8.2.97,12.29,2.07,16.67,6.81,32.78,18.58,45.09,2.66,2.78,6.22,5.87,10.03,5.93,3.47.06,6.44-2.85,6.36-6.66-.06-2.89-2.04-4.66-4.09-6.25" style="fill:#a95260;"></path><path d="m20.34,53.14c-1.26-.22-2.28,1.38-2.62,2.46.71-2.31,2-4.81,1.97-7.25-.59-3.16-3.11-.9-3.49,1.67-.29-1.25-.08-5.03-2.06-5.04-1.03.5-1.53,2.34-1.72,3.89-.03.26-.05.51-.07.74-.01.23-.02.45-.03.65-.03-.23-.06-.45-.1-.66-.52-2.67-1.84-3.03-2.49-1.65-.1.21-.18.46-.25.75-.73,3.36-.7,7.07.65,10.28,1.15,2.72,5.45,3.66,7.42,1.24.15-.14.3-.28.44-.44,1.05-1.16,2.27-2.31,3.1-3.65.31-.5.61-1.11.53-1.71-.09-.68-.69-1.08-1.29-1.3" style="fill:#f1c2a6;"></path><path d="m125.09,80.74c-2.17,1.79-3.67,5.57-5.26,8.2-5.23,8.61-11.79,16.48-19.14,23.06-7.07,6.33-14.6,10.12-22.44,14.14-2.48,1.27-3.79,5.11-3.28,7.98,1.66,9.34,14.09,2.46,20.26-1.55,8.43-5.48,15.56-13.65,21.24-22.52,2.87-4.47,5.4-9.15,7.66-13.9,1.94-4.09,4.99-9.52,4.81-13.71-.11-2.64-2.15-3.1-3.85-1.69" style="fill:#a95260;"></path><path d="m122,74.68c1.38.14,1.48,2.23,1.63,3.44-.06-.48-.01-.96.06-1.32.41-1.76.28-3.6.48-5.38.09-2.1,2.23-2.25,2.8-.31.12.67.32,1.54.23,2.21.65-1.18.5-4.49,2.62-3.93,1.14,1.01.25,3.25.45,4.66,1.18-2.81,3.06-3.13,2.95.37-.18,1.77-.63,3.51-1.32,5.15-.4.94-.87,1.84-1.43,2.69-.28.43-.59.85-.91,1.25-.3.37-.62.77-.99,1.06-.57.45-1.28.67-2.01.69-.9.03-1.81-.21-2.6-.64,0,0-.02,0-.03-.01-.52-.28-.99-.67-1.35-1.14-1.21-1.34-3.94-8.47-.58-8.79" style="fill:#f1c2a6;"></path><path d="m77.99,246.96c16.87,10.98,26.42,32.31,33.13,51.96.77,2.25,3.36,3.65,5.42,2.25,1.03-.56,1.29-1.96,1.03-2.81-4.65-24.98-13.43-54.72-37.44-62.58-2.84-.84-6.71,2.81-6.02,6.67.25,2.04,1.91,3.36,3.87,4.52" style="fill:#a95260;"></path><path d="m109.7,308.74c1.03-.7,1.82-1.89,2.51-3.17.7,2.43-.04,8.86,2.94,8.85,1.74-.18,1.68-2.47,1.53-4,.41.84.83,1.67,1.26,2.49.57,1.08,2.32.55,2.13-.85-.19-1.37-.42-2.71-.69-4.05,6.1,4.78,1.21-8.17-1.47-9.2-.31-1.1-1.53-1.35-2.45-1.02-1.18.03-2.91,1.09-3.9,2.21-1.56,1.89-2.47,4.76-3.49,7.05-.54,1.21.7,2.32,1.63,1.69" style="fill:#f1c2a6;"></path><path d="m18.93,313.54c-1.21-23.62,6.27-45.94,19.34-66.39,1.21-1.95-1.3-3.91-3.53-5.03-2.23-1.12-4.37-.1-5.77,1.29-18.27,17.83-23.35,47.42-14.41,71.23,1.59,1.62,3.65.79,4.37-1.09" style="fill:#a95260;"></path><path d="m13.98,324.73c.41-.36.91-.67,1.16-1.62.07-.19.13-.38.19-.58.18-.59.3-1.18.43-1.65.02.81,0,1.62.04,2.42.05,1.14.21,4.67,2.28,3.24.47-.32.69-.89.81-1.42.29-1.27.11-2.58.17-3.86,0-.13.02-.27.03-.4.17.89.42,1.37.66,2,.33.83.63,1.71,1.38,2.27.34.25.78.42,1.18.3.47-.13.77-.61.84-1.09.14-1.02-.4-2.13-.72-3.07-.23-.67-.46-1.34-.69-2.01-.11-.34-.23-.67-.34-1.01-.04-.13-.09-.67-.22-.74.89.5,1.42,1.09,2.08,1.61.89.7,2.08.66,2.16-.36.04-.49-.38-1.03-.62-1.43-.76-1.28-1.74-2.49-2.78-3.56-.93-.98-2.09-2.01-3.43-2.38-.19-.06-.39-.09-.59-.12-1.6-.2-3.16.49-4.02,1.89-1.11,1.79-.8,4.15-1.12,6.15-.03.22-.07.45-.1.67-.06.45-.13.89-.19,1.33-.03.16-.05.32-.07.48-.09,1.05-.63,2.42.75,3.1.24.04.5-.04.74-.15" style="fill:#f1c2a6;"></path><path d="m61.28,213.72c-9.06.68-17.29-5.32-22.51-13.4-10.3-15.94-12.47-39.13-8.7-58.09,2.08-10.48,6.74-20.63,15.1-26.15,4.29-2.84,9.36-4,14.31-3.7,10.77.64,21.93,7.64,27.1,18.72,8.53,18.3,7.18,43.64-.92,61.81-1.53,3.44-3.39,6.7-5.61,9.63-4.81,6.36-11.37,10.64-18.78,11.19" style="fill:#a95260;"></path><path d="m72.78,133.59c-5.55-4.96-13.22-6.01-19.34-1.79-9.25,6.37-13.14,20.21-13.41,31.96-.09,3.75.21,7.52.84,11.2,1.36,7.92,4.4,16.33,10.33,21.16,3.16,2.57,6.87,3.71,10.55,3.56,4.28-.18,8.52-2.09,11.8-5.5,2.3-2.38,4.1-5.32,5.45-8.5,6.67-15.72,6.91-40.34-6.22-52.09" style="fill:#f7dbca;"></path><path d="m97.35,228.25c-5.84,1.18-13-2.24-14.58-8-2.01-7.29,5.08-16.46,12.83-15.29,4.93.74,7.98,5.26,9.05,9.82.92,3.89.41,8.46-2.72,11.25-1.3,1.16-2.89,1.88-4.57,2.22" style="fill:#a95260;"></path><path d="m94.73,223.97c-3.52.61-7.62-2.03-8.24-5.16-.94-4.8,5.08-11.07,9.83-7.16,2.88,2.37,4.29,8.02,1.18,10.95-.81.77-1.77,1.2-2.77,1.38" style="fill:#e27f50;"></path><path d="m17.57,224.39c5.7,1.74,13.15-.97,15.29-6.55,2.71-7.06-3.46-16.87-11.29-16.46-4.98.26-8.45,4.47-9.96,8.9-1.29,3.78-1.23,8.38,1.62,11.46,1.19,1.28,2.69,2.15,4.34,2.65" style="fill:#a95260;"></path><path d="m20.58,220.38c3.44.94,7.79-1.28,8.7-4.34,1.4-4.68-3.98-11.5-9.09-8.08-3.1,2.08-5.05,7.57-2.23,10.79.74.84,1.64,1.37,2.62,1.64" style="fill:#e27f50;"></path><path d="m92.03,234.5c-.28-3.39-.82-6.28-1.77-8.81.41-1.51.66-3.12.73-4.82.31-7.64-3.61-15.43-11.92-20.16-14.33-8.16-37.62-8.6-48.2,4.23-4.12,5-5.72,11.36-4.35,17.36-2.81,5.72-3.82,12.54-1.12,17.72,2.42,4.65,6.6,8.58,11.69,11.46,20.01,11.32,56.77,5.61,54.92-16.98" style="fill:#a95260;"></path><path d="m86.62,233.03c-.02-2.41-.79-4.75-2.38-6.74-.2-.24-.27-.56-.24-.87.1-.95.14-1.9.12-2.85-.11-5.54-2.15-10.9-6.66-14.1-4.97-3.53-12.38-3.69-16.88,1.7-.18.25-.58.22-.71-.04-3.29-4.98-9.23-6.16-14.45-4.71-2.04.56-4.11,1.53-5.64,3.02-4.18,4.1-6.16,9.88-5.93,15.57.01.32-.09.64-.31.87-3.99,4.26-3.27,10.98.33,15.24,8.37,9.9,23.74,12.07,35.82,9.39,7.92-1.76,16.22-6.4,16.89-15.36.03-.37.04-.74.04-1.11" style="fill:#f7dbca;"></path><path d="m49.56,189.71c3.44-.24,6.94.98,9.61,3.36.04.04.11,0,.11-.05.17-2.69,1.39-5.3,3.28-7.02.05-.05.13,0,.11.08-.4,1.96-.44,4-.14,5.97,0,.05.06.08.1.06,3.44-1.71,9.72-3.76,12.79.14.03.04.02.11-.03.13-3.06,1.2-6.4,1.82-9.07,5.26,0,0,0,0,0,0-.91.88-2.8,2.41-4.33,1.79-4.59-1.3-8.9-6.04-12.47-9.58-.05-.05-.02-.13.04-.14" style="fill:#e27f50;"></path><path d="m72.89,218.66c-.37-.73-1.22-1.11-2.17-.51-1.31.83-1.65,3.17.26,3.4.88.1,1.65-.51,1.95-1.31.22-.57.17-1.14-.05-1.58" style="fill:#1d1d1b;"></path><path d="m48.57,219.19c-.03-.24-.09-.46-.21-.66-.47-.77-1.72-1.49-2.73-.98-.42.21-.69.59-.79.99-.23.9.34,2.12,1.33,2.57,1.57.71,2.54-.74,2.41-1.92" style="fill:#1d1d1b;"></path><path d="m62.91,227.81c-.02-.2-.08-.39-.16-.54-.3-.51-.91-.6-1.22-.02-.04.06-.08.13-.1.21-.16.6-.01,1.13.39,1.38.32.2.75.14.97-.29.11-.21.14-.48.12-.74" style="fill:#1d1d1b;"></path><path d="m58.49,227.2c-.09-.66-.55-.78-.92-.59-.3.16-.54.58-.54,1.08,0,.33.11.66.3.81.47.37,1.23-.35,1.17-1.22,0-.03,0-.06,0-.08" style="fill:#1d1d1b;"></path><path d="m63.88,237.84c.07-.07.23-.04.27.02.06.09.1.27.09.56-.02.41-.15.87-.4,1.31-.24.44-.62.84-1.06,1.13-.48.31-1.09.59-1.74.73-.64.14-1.31.18-1.9.09-.69-.11-1.37-.41-1.95-.83-.57-.43-1.05-.98-1.34-1.59-.28-.53-.4-1.17-.32-1.35.08-.17.18-.13.29-.02.06.06.11.14.17.22.06.08.13.18.19.26.22.4.48.79.81,1.16.32.36.7.69,1.12.94.31.19.67.35,1.06.43.38.08.78.09,1.2.04.82-.09,1.61-.42,2.15-.95.35-.31.68-.87.87-1.2.27-.43.28-.76.49-.96" style="fill:#1d1d1b;"></path><path d="m81.49,231.19c-.07-.09-.15-.17-.24-.26-1.4-1.33-3.57-.93-4.79.44-.67.74-1.01,1.8-.82,2.78.56,2.96,4.94,2.89,6.15.47.51-1.03.44-2.51-.29-3.43" style="fill:#e27f50;"></path><path d="m43.75,229.17c-1.38-1.4-3.97-1.15-5.21.3-1.25,1.45-1.1,3.83.69,4.75,3,1.55,7.3-2.23,4.52-5.05" style="fill:#e27f50;"></path><path d="m133.44,5.36c-6.4-.63-13.83,1.67-19.69.71-7.27-11.07-18.76-4.64-4.28.76-15.9,1.14-31.82,2.04-47.76,2.26-3.83-14.03-21.82-9.15-4.15.04C38.39,9.71,19.31,7.44.25,6.25c-2.49,2.53,14.46,3.23,16.36,3.67-2.72,1.14-7.91,4.06-5.93,7.62,2.99,3.98,8.02-5.08,10.35-5.98,1.46-1.59,2.81-1,4.87-.89,6.15.42,12.32.69,18.49.82-1.96,1.99-9.71,5.76-5.84,8.69,4.29.69,7.27-4.96,9.48-7.92,12.45-1.84,31.56-.47,44.73-1.85-8.91,8.44,3.77,9.64,4.08-.23,7.53-.43,10.61-.76,18.14-1.32-1.28,1.11-2.42,3.3-1.55,4.96,2.69,3.52,7.41-2.47,7.27-5.38,1.53-.36,16.98-.19,12.73-3.1" style="fill:#719a75;"></path><path d="m87.33,9.74c-1.55-4.38-5.57-7.41-10.3-6.47-1.57.31-2.29,2.15-2.22,3.69.04.81.14,1.38.3,1.78,2.14-.04,2.31-.04,3.64-.11.66-.12,1.6.93,2.19,1.69.79,1.03,1.08,2.52,1.18,3.8.27,3.62-.13,7.36-.35,10.97-1.37,21.43-5.48,42.64-12.07,63.07-1.5,4.67-3.15,9.29-4.9,13.87-1.64,4.28-3.65,8.44-4.92,12.85-.79,2.73,4.43,4.5,5.79,2.37,2.73-4.31,4.37-9.36,6-14.17,2.37-7.02,4.1-14.25,5.94-21.42,1.91-7.4,3.85-14.85,5.39-22.33,1.56-7.54,2.83-15.13,3.68-22.78.14-1.31.28-2.61.4-3.92.31-3.29.57-6.59.75-9.89.24-4.18.92-8.96-.5-12.99" style="fill:#a95260;"></path><path d="m76.17,11c-.96-.09-1.92-1.11-2.57-1.81-1.02-1.09-1.98-2.23-3.21-3.1-1.26-.89-2.78-1.67-4.37-1.64-2.08.04-3.89,1.65-3.58,3.71.23,1.53,1.62.72,3.93.85.76.35,1.35,1.29,1.85,1.9.84,1.03,1.42,2.03,2.39,2.93,1.88,1.74,5.35,3.64,7.32.87,1.1-1.96,1.16-2.99,1.45-3.72-.57-.17-1.82.13-3.21,0" style="fill:#a95260;"></path></g></svg>